<svg xmlns="http://www.w3.org/2000/svg" width="2099.782" height="840.768" viewBox="0 0 2099.782 840.768"><g id="Layer_2" transform="translate(-200.107 -913.292)"><g id="Group_2" data-name="Group 2"><g id="Group_1" data-name="Group 1"><path id="Path_1" data-name="Path 1" d="M1575.57,1754.06a1.5,1.5,0,0,0,0-3,1.5,1.5,0,0,0,0,3Z" fill="#172853"></path></g></g><g id="Group_13" data-name="Group 13"><g id="Group_3" data-name="Group 3"><path id="Path_2" data-name="Path 2" d="M200.107,1171.33l600,415.38-128.5-231.13-196.875-70.62-26.5,5.25,16.5-24.5h39.25l21-21.75h50.5Z" fill="#a10303" fill-rule="evenodd"></path><path id="Path_3" data-name="Path 3" d="M671.607,1355.58,1129.15,913.292,800.107,1586.71Z" fill="red" fill-rule="evenodd"></path><path id="Path_4" data-name="Path 4" d="M671.607,1355.58V1243.96L1129.15,913.292Z" fill="#ffae00" fill-rule="evenodd"></path><path id="Path_5" data-name="Path 5" d="M524.982,1243.96H671.607v111.62l-196.875-70.62-26.5,5.25,16.5-24.5h39.25Z" fill="#fff" fill-rule="evenodd"></path></g><g id="Group_12" data-name="Group 12"><g id="Group_9" data-name="Group 9"><g id="Group_4" data-name="Group 4"><path id="Path_6" data-name="Path 6" d="M1100.2,1479.97h5.664v33.552H1100.2Z"></path><path id="Path_7" data-name="Path 7" d="M1141.53,1479.97h5.664v33.552h-6.144l-19.008-24.48v24.48h-5.664V1479.97h5.664l19.488,25.056V1479.97Z"></path><path id="Path_8" data-name="Path 8" d="M1167.86,1484.39a7.435,7.435,0,0,0-4.056,1.008,3.369,3.369,0,0,0-1.584,3.048,3.544,3.544,0,0,0,1.584,3.12q1.584,1.08,6.744,2.328a18.551,18.551,0,0,1,7.776,3.5q2.616,2.258,2.616,6.647a8.808,8.808,0,0,1-3.312,7.129,13.206,13.206,0,0,1-8.688,2.735,20.405,20.405,0,0,1-13.968-5.424l3.552-4.271q5.086,4.416,10.56,4.415a7.205,7.205,0,0,0,4.344-1.176,3.68,3.68,0,0,0,1.608-3.12,3.5,3.5,0,0,0-1.512-3.023,15.912,15.912,0,0,0-5.208-1.968,46.554,46.554,0,0,1-5.616-1.633,12.669,12.669,0,0,1-3.408-1.943q-2.977-2.256-2.976-6.912a8.414,8.414,0,0,1,3.384-7.176,13.623,13.623,0,0,1,8.376-2.521,20.076,20.076,0,0,1,6.384,1.057,16.69,16.69,0,0,1,5.472,2.976l-3.024,4.271a11.436,11.436,0,0,0-4.032-2.208A15.651,15.651,0,0,0,1167.86,1484.39Z"></path><path id="Path_9" data-name="Path 9" d="M1201.82,1485.16v28.368h-5.664V1485.16H1185.98v-5.184H1212v5.184Z"></path><path id="Path_10" data-name="Path 10" d="M1219.33,1479.97H1225v33.552h-5.664V1479.97Z"></path><path id="Path_11" data-name="Path 11" d="M1248.18,1485.16v28.368h-5.664V1485.16H1232.34v-5.184h26.016v5.184Z"></path><path id="Path_12" data-name="Path 12" d="M1273.24,1505.84a8.587,8.587,0,0,0,12.48,0,10.846,10.846,0,0,0,2.3-7.3v-18.576h5.664v18.815q0,7.25-3.982,11.16a15.319,15.319,0,0,1-20.45,0q-3.984-3.911-3.982-11.16v-18.815h5.662v18.576A10.784,10.784,0,0,0,1273.24,1505.84Z"></path><path id="Path_13" data-name="Path 13" d="M1316.44,1485.16v28.368h-5.664V1485.16H1300.6v-5.184h26.016v5.184Z"></path></g><g id="Group_5" data-name="Group 5"><path id="Path_14" data-name="Path 14" d="M1370,1513.52h-14.688v-33.552h13.057a18.871,18.871,0,0,1,5.879.815,8.07,8.07,0,0,1,3.672,2.208,8.581,8.581,0,0,1,2.305,5.856,6.919,6.919,0,0,1-2.5,5.855,10.716,10.716,0,0,1-1.248.841c-.225.112-.623.3-1.2.552a8.8,8.8,0,0,1,4.967,2.808,7.824,7.824,0,0,1,1.85,5.305,9.025,9.025,0,0,1-2.4,6.191Q1376.866,1513.521,1370,1513.52Zm-9.03-19.63h7.2q6.147,0,6.145-4.176a3.941,3.941,0,0,0-1.488-3.456,8.029,8.029,0,0,0-4.607-1.057h-7.248v8.689Zm0,14.4h8.881a9.452,9.452,0,0,0,4.775-.983q1.656-.983,1.656-3.72,0-4.466-7.152-4.465h-8.16Z"></path><path id="Path_15" data-name="Path 15" d="M1390.4,1479.97h5.664v33.552H1390.4Z"></path><path id="Path_16" data-name="Path 16" d="M1416.72,1484.39a7.441,7.441,0,0,0-4.057,1.008,3.371,3.371,0,0,0-1.584,3.048,3.547,3.547,0,0,0,1.584,3.12q1.586,1.08,6.744,2.328a18.561,18.561,0,0,1,7.777,3.5q2.613,2.258,2.615,6.647a8.806,8.806,0,0,1-3.313,7.129,13.2,13.2,0,0,1-8.688,2.735,20.413,20.413,0,0,1-13.969-5.424l3.553-4.271q5.086,4.416,10.561,4.415a7.205,7.205,0,0,0,4.344-1.176,3.684,3.684,0,0,0,1.607-3.12,3.5,3.5,0,0,0-1.512-3.023,15.922,15.922,0,0,0-5.209-1.968,46.583,46.583,0,0,1-5.615-1.633,12.7,12.7,0,0,1-3.408-1.943q-2.976-2.256-2.977-6.912a8.415,8.415,0,0,1,3.385-7.176,13.624,13.624,0,0,1,8.377-2.521,20.075,20.075,0,0,1,6.383,1.057,16.7,16.7,0,0,1,5.473,2.976l-3.023,4.271a11.469,11.469,0,0,0-4.033-2.208A15.549,15.549,0,0,0,1416.72,1484.39Z"></path><path id="Path_17" data-name="Path 17" d="M1463.16,1479.97h5.664v33.552h-6.145l-19.008-24.48v24.48h-5.664V1479.97h5.664l19.488,25.056V1479.97Z"></path><path id="Path_18" data-name="Path 18" d="M1479.34,1479.97H1485v33.552h-5.664Z"></path><path id="Path_19" data-name="Path 19" d="M1505.67,1484.39a7.441,7.441,0,0,0-4.057,1.008,3.371,3.371,0,0,0-1.584,3.048,3.547,3.547,0,0,0,1.584,3.12q1.586,1.08,6.744,2.328a18.561,18.561,0,0,1,7.777,3.5q2.613,2.258,2.615,6.647a8.806,8.806,0,0,1-3.313,7.129,13.2,13.2,0,0,1-8.688,2.735,20.413,20.413,0,0,1-13.969-5.424l3.553-4.271q5.086,4.416,10.561,4.415a7.205,7.205,0,0,0,4.344-1.176,3.684,3.684,0,0,0,1.607-3.12,3.5,3.5,0,0,0-1.512-3.023,15.922,15.922,0,0,0-5.209-1.968,46.583,46.583,0,0,1-5.615-1.633,12.7,12.7,0,0,1-3.408-1.943q-2.976-2.256-2.977-6.912a8.415,8.415,0,0,1,3.385-7.176,13.624,13.624,0,0,1,8.377-2.521,20.075,20.075,0,0,1,6.383,1.057,16.7,16.7,0,0,1,5.473,2.976l-3.023,4.271a11.469,11.469,0,0,0-4.033-2.208A15.6,15.6,0,0,0,1505.67,1484.39Z"></path></g><g id="Group_6" data-name="Group 6"><path id="Path_20" data-name="Path 20" d="M1573.2,1484.36q4.845,4.392,4.848,12.216t-4.7,12.385q-4.705,4.56-14.4,4.56h-11.137v-33.552h11.52Q1568.346,1479.97,1573.2,1484.36Zm-.87,12.36q0-11.522-13.2-11.521h-5.664v22.992h6.289q6.094,0,9.336-2.9T1572.33,1496.72Z"></path><path id="Path_21" data-name="Path 21" d="M1591.3,1505.89l-3.359,7.632h-6.049l14.785-33.552h6.047l14.785,33.552h-6.049l-3.359-7.632Zm14.49-5.23-6.1-13.824-6.1,13.824Z"></path><path id="Path_22" data-name="Path 22" d="M1648.51,1479.97h5.664v33.552h-6.143l-19.008-24.48v24.48h-5.664V1479.97h5.664l19.486,25.056V1479.97Z"></path></g><g id="Group_7" data-name="Group 7"><path id="Path_23" data-name="Path 23" d="M1698.21,1485.16v28.368h-5.664V1485.16H1682.37v-5.184h26.016v5.184Z"></path><path id="Path_24" data-name="Path 24" d="M1739.3,1479.97v5.328h-17.9v8.88h16.08v5.04H1721.4v8.976h18.48v5.328h-24.145V1479.97Z"></path><path id="Path_25" data-name="Path 25" d="M1748.32,1479.97h5.664v16.368l15.359-16.368h7.2l-13.488,14.688,13.68,18.864h-6.721l-11.135-14.688-4.9,5.28v9.408h-5.664V1479.97Z"></path><path id="Path_26" data-name="Path 26" d="M1808.46,1479.97h5.664v33.552h-6.145l-19.008-24.48v24.48h-5.664V1479.97h5.664l19.488,25.056V1479.97Z"></path><path id="Path_27" data-name="Path 27" d="M1852.72,1508.89a18.4,18.4,0,0,1-25.152,0,17.616,17.616,0,0,1,0-24.769,18.4,18.4,0,0,1,25.152,0,17.616,17.616,0,0,1,0,24.769Zm-4.15-21a11.765,11.765,0,0,0-16.848,0,12.53,12.53,0,0,0,0,17.231,11.763,11.763,0,0,0,16.848,0,12.53,12.53,0,0,0,0-17.231Z"></path><path id="Path_28" data-name="Path 28" d="M1866.16,1513.52v-33.552h5.664v28.176h15.313v5.376Z"></path><path id="Path_29" data-name="Path 29" d="M1921.65,1508.89a18.4,18.4,0,0,1-25.152,0,17.616,17.616,0,0,1,0-24.769,18.4,18.4,0,0,1,25.152,0,17.616,17.616,0,0,1,0,24.769Zm-4.15-21a11.765,11.765,0,0,0-16.848,0,12.53,12.53,0,0,0,0,17.231,11.763,11.763,0,0,0,16.848,0,12.53,12.53,0,0,0,0-17.231Z"></path><path id="Path_30" data-name="Path 30" d="M1958.32,1497.2h5.664v11.473q-4.752,5.232-13.584,5.231a17.13,17.13,0,0,1-12.457-4.9,17.791,17.791,0,0,1,.1-24.864,17.039,17.039,0,0,1,12.359-4.992,17.563,17.563,0,0,1,12.047,4.225l-3.023,4.319a11.82,11.82,0,0,0-3.959-2.328,15,15,0,0,0-4.633-.647,11.918,11.918,0,0,0-8.543,3.288,11.81,11.81,0,0,0,8.039,20.472,14.519,14.519,0,0,0,7.992-2.063V1497.2Z"></path><path id="Path_31" data-name="Path 31" d="M1972.62,1479.97h5.664v33.552h-5.664Z"></path></g><g id="Group_8" data-name="Group 8"><path id="Path_32" data-name="Path 32" d="M2009.64,1479.97h5.664v33.552h-5.664Z"></path><path id="Path_33" data-name="Path 33" d="M2050.97,1479.97h5.664v33.552h-6.145l-19.008-24.48v24.48h-5.664V1479.97h5.664l19.488,25.056V1479.97Z"></path><path id="Path_34" data-name="Path 34" d="M2092.53,1484.36q4.845,4.392,4.848,12.216t-4.7,12.385q-4.705,4.56-14.4,4.56h-11.137v-33.552h11.52Q2087.691,1479.97,2092.53,1484.36Zm-.86,12.36q0-11.522-13.2-11.521h-5.664v22.992h6.289q6.094,0,9.336-2.9T2091.67,1496.72Z"></path><path id="Path_35" data-name="Path 35" d="M2133.96,1508.89a18.4,18.4,0,0,1-25.152,0,17.617,17.617,0,0,1,0-24.769,18.4,18.4,0,0,1,25.152,0,17.617,17.617,0,0,1,0,24.769Zm-4.16-21a11.765,11.765,0,0,0-16.848,0,12.53,12.53,0,0,0,0,17.231,11.763,11.763,0,0,0,16.848,0,12.53,12.53,0,0,0,0-17.231Z"></path><path id="Path_36" data-name="Path 36" d="M2172.55,1479.97h5.664v33.552h-6.145l-19.008-24.48v24.48H2147.4V1479.97h5.664l19.488,25.056V1479.97Z"></path><path id="Path_37" data-name="Path 37" d="M2212.29,1479.97v5.328h-17.9v8.88h16.08v5.04h-16.08v8.976h18.48v5.328h-24.145V1479.97Z"></path><path id="Path_38" data-name="Path 38" d="M2231.47,1484.39a7.44,7.44,0,0,0-4.057,1.008,3.371,3.371,0,0,0-1.584,3.048,3.547,3.547,0,0,0,1.584,3.12q1.585,1.08,6.744,2.328a18.563,18.563,0,0,1,7.777,3.5q2.613,2.258,2.615,6.647a8.806,8.806,0,0,1-3.313,7.129,13.2,13.2,0,0,1-8.688,2.735,20.413,20.413,0,0,1-13.969-5.424l3.553-4.271q5.087,4.416,10.561,4.415a7.205,7.205,0,0,0,4.344-1.176,3.683,3.683,0,0,0,1.607-3.12,3.5,3.5,0,0,0-1.512-3.023,15.922,15.922,0,0,0-5.209-1.968,46.6,46.6,0,0,1-5.615-1.633,12.7,12.7,0,0,1-3.408-1.943q-2.976-2.256-2.977-6.912a8.415,8.415,0,0,1,3.385-7.176,13.625,13.625,0,0,1,8.377-2.521,20.075,20.075,0,0,1,6.383,1.057,16.7,16.7,0,0,1,5.473,2.976l-3.023,4.271a11.467,11.467,0,0,0-4.033-2.208A15.593,15.593,0,0,0,2231.47,1484.39Z"></path><path id="Path_39" data-name="Path 39" d="M2252.76,1479.97h5.664v33.552h-5.664Z"></path><path id="Path_40" data-name="Path 40" d="M2273.68,1505.89l-3.359,7.632h-6.049l14.785-33.552h6.047l14.785,33.552h-6.049l-3.359-7.632Zm14.5-5.23-6.1-13.824-6.1,13.824Z"></path></g></g><g id="Group_11" data-name="Group 11"><path id="Path_41" data-name="Path 41" d="M1103.15,1197.13v243.66h59V1228.13l-33-31Z" fill="#172853"></path><path id="Path_42" data-name="Path 42" d="M1887.14,1197.13v243.66h59V1228.13l-33-31Z" fill="#172853"></path><path id="Path_43" data-name="Path 43" d="M2237.77,1197.13v243.66h59V1228.13l-33-31Z" fill="#172853"></path><path id="Path_44" data-name="Path 44" d="M1217.82,1189.46v251.33h53.66v-132l152.25,141.67h6.08V1197.13h-54.58v134.08l-151.25-141.75Z" fill="#172853"></path><path id="Path_45" data-name="Path 45" d="M1649.23,1197.13l40,51.08h34.5v192.58h59.58V1248.21h76.67v-25.25l-27.83-25.83Z" fill="#172853"></path><path id="Path_46" data-name="Path 46" d="M2003.15,1197.13h58v105.66l79.67-105.66h70.33l-92,116.16,99.43,127.5H2147.4l-86.22-110.67.17,110.67h-58.2Z" fill="#172853"></path><g id="Group_10" data-name="Group 10"><path id="Path_47" data-name="Path 47" d="M1473.65,1371.96l4.667,65.666s35,12,65.167,12c32.167,0,89-15.666,89-80,0,0,5.5-36.5-40.334-64.667s-65.541-32-65.541-50.25,22.375-19.375,28-19.375,28.5,4.25,58.5,23.25l-.125-57.125s-32.375-12.5-61.875-12.5c-37.625,0-79.792,19-79.792,67.834,0,51.666,48.834,67.834,65.167,79s39,21.5,39,38-17.5,23-32.834,23S1504.48,1391.12,1473.65,1371.96Z" fill="none"></path><path id="Path_48" data-name="Path 48" d="M1592.15,1304.96c-45.833-28.166-65.541-32-65.541-50.25,0-16.116,17.443-18.876,25.4-19.3h0s-20.351-9.951-70.345-15.116c-6.457,9.626-10.342,21.689-10.342,36.5,0,51.666,48.834,67.834,65.167,79s39,21.5,39,38-17.5,23-32.834,23-38.167-5.668-69-24.834l4.667,65.666s35,12,65.167,12c32.167,0,89-15.666,89-80C1632.48,1369.63,1637.98,1333.12,1592.15,1304.96Z" fill="#172853"></path><path id="Path_49" data-name="Path 49" d="M1588.28,1245.18a195.93,195.93,0,0,1,24.828,13.407l-.125-57.125s-32.375-12.5-61.875-12.5c-22.273,0-46.137,6.66-61.9,22.225.1,0,54.907,2.064,99.073,33.989Z" fill="#b90404"></path><path id="Path_50" data-name="Path 50" d="M1552,1235.41c1.053-.056,1.947-.1,2.6-.073,4.292.209,16.319,2.088,33.672,9.843l0,0c-44.166-31.925-98.976-33.986-99.073-33.989a58.855,58.855,0,0,0-7.547,9.106c49.994,5.165,70.345,15.116,70.345,15.116Z" fill="#fff"></path></g></g></g></g></g></svg>